<?xml version="1.0" encoding="utf-8"?>
<!-- Generator: Adobe Illustrator 18.1.0, SVG Export Plug-In . SVG Version: 6.00 Build 0)  -->
<!DOCTYPE svg PUBLIC "-//W3C//DTD SVG 1.1//EN" "http://www.w3.org/Graphics/SVG/1.1/DTD/svg11.dtd">
<svg version="1.1" id="Layer_1" xmlns="http://www.w3.org/2000/svg" xmlns:xlink="http://www.w3.org/1999/xlink" x="0px" y="0px"
	 width="340.1px" height="276.2px" viewBox="0 0 340.1 276.2" enable-background="new 0 0 340.1 276.2" xml:space="preserve">
<g id="New_Symbol_36">
</g>
<g>
	<rect x="10.3" y="58" fill="#FFFFFF" width="319.6" height="208"/>
	<rect x="10.3" y="10.3" fill="#CCCCCC" width="319.6" height="37.6"/>
	<circle fill="#333333" cx="30.3" cy="29.1" r="8.6"/>
	<circle fill="#333333" cx="57.1" cy="29.1" r="8.6"/>
	<circle fill="#333333" cx="83.9" cy="29.1" r="8.6"/>
	<path fill-rule="evenodd" clip-rule="evenodd" fill="#333333" d="M140,116.1V98.5h-29v17.7H140z M250.2,123.2
		c0-5.3-4.3-9.6-9.6-9.6c-5.3,0-9.6,4.3-9.6,9.6c0,5.3,4.3,9.6,9.6,9.6C245.9,132.8,250.2,128.5,250.2,123.2z M141.1,165.9
		c0-16,13-29,29-29c16,0,29,13,29,29s-13,29-29,29C154.1,194.9,141.1,181.9,141.1,165.9z M211.3,165.9c0-22.7-18.5-41.2-41.2-41.2
		c-22.7,0-41.2,18.5-41.2,41.2c0,22.7,18.5,41.2,41.2,41.2C192.8,207.1,211.3,188.6,211.3,165.9z M80.3,213.9V112.5
		c0-5.2,4.2-9.4,9.4-9.4h10.5v-8.9c0-3.7,3-6.6,6.6-6.6h37.7c3.7,0,6.6,3,6.6,6.6v8.9h99.2c5.2,0,9.4,4.2,9.4,9.4v101.4
		c0,5.2-4.2,9.4-9.4,9.4H89.8C84.6,223.3,80.3,219.1,80.3,213.9z"/>
	<path fill="#333333" d="M329.9,0H10.3C4.6,0,0,4.6,0,10.3V266c0,5.7,4.6,10.3,10.3,10.3h319.6c5.7,0,10.3-4.6,10.3-10.3V10.3
		C340.1,4.6,335.5,0,329.9,0z M329.9,10.3V48H10.3V10.3H329.9z M10.3,266V58h319.6v208H10.3z"/>
</g>
</svg>
